# xmcd CD database file
#
# Track frame offsets:
#	150
#	34535
#	54150
#	78270
#	100377
#	128265
#	160020
#	197292
#	222812
#	250272
#	276567
#	300057
#	328180
#
# Disc length: 4695 seconds
#
# Revision: 0
# Processed by: cddbd v1.5.2PL0 Copyright (c) Steve Scherf et al.
# Submitted via: CDex 1.51
#
DISCID=9b12550d
DTITLE=Alain Caron - The Jazz Rock Cuts
DYEAR=2006
DGENRE=Jazz
TTITLE0=Slam The Clown
TTITLE1=Pacman
TTITLE2=No Way
TTITLE3=From The Top
TTITLE4=The "F" File
TTITLE5=Flight Of The Bebop Bee
TTITLE6=Turkey Loose On The Kit
TTITLE7=The Bump
TTITLE8=Devil Shuffle
TTITLE9=No Left Turn On Tuesday
TTITLE10=District 6
TTITLE11=Trouble
TTITLE12=D-Code
EXTD=YEAR: 2006
EXTT0=
EXTT1=
EXTT2=
EXTT3=
EXTT4=
EXTT5=
EXTT6=
EXTT7=
EXTT8=
EXTT9=
EXTT10=
EXTT11=
EXTT12=
PLAYORDER=
